<?xml version="1.0" standalone="no"?>
<!DOCTYPE svg PUBLIC "-//W3C//DTD SVG 20010904//EN"
 "http://www.w3.org/TR/2001/REC-SVG-20010904/DTD/svg10.dtd">
<svg version="1.0" xmlns="http://www.w3.org/2000/svg"
 width="900.000000pt" height="900.000000pt" viewBox="0 0 900.000000 900.000000"
 preserveAspectRatio="xMidYMid meet">
<metadata>
Created by potrace 1.10, written by Peter Selinger 2001-2011
</metadata>
<g transform="translate(0.000000,900.000000) scale(0.100000,-0.100000)"
fill="#FFFFFF" stroke="none">
<path d="M2922 6657 c-1031 -1031 -1552 -1559 -1552 -1572 0 -13 83 -103 230
-250 127 -126 230 -235 230 -241 0 -6 -104 -114 -230 -239 -156 -155 -230
-236 -230 -250 0 -29 3099 -3139 3123 -3134 24 6 3127 3108 3127 3128 0 9
-103 120 -230 246 -127 126 -230 237 -230 245 0 8 105 121 234 249 182 182
233 238 226 250 -4 9 -705 715 -1557 1569 -1030 1032 -1555 1552 -1568 1552
-13 0 -546 -526 -1573 -1553z m3006 -134 c777 -780 1418 -1424 1425 -1431 8
-10 -27 -51 -159 -183 -93 -93 -176 -169 -184 -169 -8 0 -575 560 -1260 1245
-685 685 -1250 1245 -1257 1245 -6 0 -572 -560 -1256 -1245 -685 -685 -1251
-1245 -1259 -1245 -15 0 -348 330 -348 345 0 20 2844 2855 2864 2855 13 0 517
-499 1434 -1417z m-246 -740 c648 -648 1178 -1185 1178 -1193 0 -16 -2349
-2370 -2365 -2370 -11 0 -2368 2353 -2373 2369 -4 11 2356 2371 2372 2371 6 0
541 -530 1188 -1177z m-2447 -2583 c687 -688 1254 -1250 1260 -1250 5 0 570
560 1255 1245 685 685 1252 1245 1260 1245 14 0 350 -328 350 -341 0 -12
-2852 -2854 -2867 -2858 -10 -2 -497 480 -1439 1425 -783 785 -1424 1433
-1424 1438 0 12 337 346 349 346 3 0 569 -562 1256 -1250z"/>
<path d="M3467 5533 c-4 -3 -7 -159 -7 -345 0 -265 3 -340 13 -344 7 -2 139
-5 294 -7 155 -1 285 -6 290 -10 4 -5 8 -311 9 -681 0 -370 3 -680 7 -689 6
-16 42 -17 415 -17 327 0 412 3 421 13 7 10 10 212 10 687 -1 640 0 675 17
687 15 11 79 13 293 13 150 -1 278 3 282 7 10 10 13 668 4 683 -7 11 -2037 14
-2048 3z"/>
</g>
</svg>
